<mxfile host="app.diagrams.net" agent="Mozilla/5.0 (Macintosh; Intel Mac OS X 10_15_7) AppleWebKit/537.36 (KHTML, like Gecko) Chrome/136.0.0.0 Safari/537.36" version="27.0.9">
  <diagram name="Page-1" id="-iuFZe45vomk9C8GGPa8">
    <mxGraphModel dx="1783" dy="903" grid="1" gridSize="10" guides="1" tooltips="1" connect="1" arrows="1" fold="1" page="1" pageScale="1" pageWidth="850" pageHeight="1100" math="0" shadow="0">
      <root>
        <mxCell id="0" />
        <mxCell id="1" parent="0" />
        <mxCell id="8xc94kz88sHaFvi-XfF1-1" value="" style="ellipse;html=1;shape=startState;fillColor=#000000;strokeColor=#ff0000;" vertex="1" parent="1">
          <mxGeometry x="410" y="40" width="30" height="30" as="geometry" />
        </mxCell>
        <mxCell id="8xc94kz88sHaFvi-XfF1-2" value="" style="edgeStyle=orthogonalEdgeStyle;html=1;verticalAlign=bottom;endArrow=open;endSize=8;strokeColor=#ff0000;rounded=0;" edge="1" source="8xc94kz88sHaFvi-XfF1-1" parent="1">
          <mxGeometry relative="1" as="geometry">
            <mxPoint x="425" y="130" as="targetPoint" />
          </mxGeometry>
        </mxCell>
        <mxCell id="8xc94kz88sHaFvi-XfF1-3" value="Read:&lt;div&gt;HV_ENABLE state&lt;/div&gt;&lt;div&gt;HV_VSET value&lt;/div&gt;&lt;div&gt;HV_VMON value&lt;/div&gt;" style="rounded=0;whiteSpace=wrap;html=1;" vertex="1" parent="1">
          <mxGeometry x="358" y="130" width="135" height="80" as="geometry" />
        </mxCell>
        <mxCell id="8xc94kz88sHaFvi-XfF1-4" value="" style="endArrow=classic;html=1;rounded=0;exitX=0.5;exitY=1;exitDx=0;exitDy=0;" edge="1" parent="1" source="8xc94kz88sHaFvi-XfF1-3">
          <mxGeometry width="50" height="50" relative="1" as="geometry">
            <mxPoint x="400" y="320" as="sourcePoint" />
            <mxPoint x="426" y="280" as="targetPoint" />
          </mxGeometry>
        </mxCell>
        <mxCell id="8xc94kz88sHaFvi-XfF1-5" value="Is HV_ENABLE HIGH?" style="rhombus;whiteSpace=wrap;html=1;" vertex="1" parent="1">
          <mxGeometry x="344.75" y="280" width="161.5" height="100" as="geometry" />
        </mxCell>
        <mxCell id="8xc94kz88sHaFvi-XfF1-6" value="" style="endArrow=classic;html=1;rounded=0;exitX=0.5;exitY=1;exitDx=0;exitDy=0;" edge="1" parent="1">
          <mxGeometry width="50" height="50" relative="1" as="geometry">
            <mxPoint x="426" y="380" as="sourcePoint" />
            <mxPoint x="426" y="450" as="targetPoint" />
          </mxGeometry>
        </mxCell>
        <mxCell id="8xc94kz88sHaFvi-XfF1-7" value="Is HV_VMON = HV_VSET(1 +- 1%)?" style="rhombus;whiteSpace=wrap;html=1;" vertex="1" parent="1">
          <mxGeometry x="310" y="450" width="235.25" height="110" as="geometry" />
        </mxCell>
        <mxCell id="8xc94kz88sHaFvi-XfF1-8" value="" style="endArrow=classic;html=1;rounded=0;exitX=0.5;exitY=1;exitDx=0;exitDy=0;" edge="1" parent="1" source="8xc94kz88sHaFvi-XfF1-7">
          <mxGeometry width="50" height="50" relative="1" as="geometry">
            <mxPoint x="450" y="590" as="sourcePoint" />
            <mxPoint x="428" y="630" as="targetPoint" />
          </mxGeometry>
        </mxCell>
        <mxCell id="8xc94kz88sHaFvi-XfF1-9" value="Set MCU_PSU_OK to LOW" style="rounded=0;whiteSpace=wrap;html=1;" vertex="1" parent="1">
          <mxGeometry x="360.13" y="630" width="135" height="60" as="geometry" />
        </mxCell>
        <mxCell id="8xc94kz88sHaFvi-XfF1-10" value="" style="endArrow=classic;html=1;rounded=0;edgeStyle=elbowEdgeStyle;exitX=1;exitY=0.5;exitDx=0;exitDy=0;" edge="1" parent="1" source="8xc94kz88sHaFvi-XfF1-7">
          <mxGeometry width="50" height="50" relative="1" as="geometry">
            <mxPoint x="590" y="520" as="sourcePoint" />
            <mxPoint x="640" y="630" as="targetPoint" />
            <Array as="points">
              <mxPoint x="640" y="570" />
            </Array>
          </mxGeometry>
        </mxCell>
        <mxCell id="8xc94kz88sHaFvi-XfF1-11" value="Set MCU_PSU_OK to HIGH" style="rounded=0;whiteSpace=wrap;html=1;" vertex="1" parent="1">
          <mxGeometry x="570" y="630" width="135" height="60" as="geometry" />
        </mxCell>
        <mxCell id="8xc94kz88sHaFvi-XfF1-12" value="" style="endArrow=classic;html=1;rounded=0;edgeStyle=elbowEdgeStyle;exitX=1;exitY=0.5;exitDx=0;exitDy=0;" edge="1" parent="1" source="8xc94kz88sHaFvi-XfF1-5">
          <mxGeometry width="50" height="50" relative="1" as="geometry">
            <mxPoint x="650" y="490" as="sourcePoint" />
            <mxPoint x="640" y="510" as="targetPoint" />
            <Array as="points">
              <mxPoint x="640" y="420" />
            </Array>
          </mxGeometry>
        </mxCell>
        <mxCell id="8xc94kz88sHaFvi-XfF1-13" value="" style="endArrow=classic;html=1;rounded=0;edgeStyle=elbowEdgeStyle;exitX=1;exitY=0.5;exitDx=0;exitDy=0;" edge="1" parent="1" target="8xc94kz88sHaFvi-XfF1-14">
          <mxGeometry width="50" height="50" relative="1" as="geometry">
            <mxPoint x="425" y="690" as="sourcePoint" />
            <mxPoint x="520" y="815" as="targetPoint" />
            <Array as="points">
              <mxPoint x="425" y="730" />
            </Array>
          </mxGeometry>
        </mxCell>
        <mxCell id="8xc94kz88sHaFvi-XfF1-14" value="" style="ellipse;html=1;shape=endState;fillColor=#000000;strokeColor=#ff0000;" vertex="1" parent="1">
          <mxGeometry x="515.25" y="740" width="30" height="30" as="geometry" />
        </mxCell>
        <mxCell id="8xc94kz88sHaFvi-XfF1-15" value="" style="endArrow=classic;html=1;rounded=0;edgeStyle=elbowEdgeStyle;exitX=0.5;exitY=1;exitDx=0;exitDy=0;entryX=1;entryY=0.5;entryDx=0;entryDy=0;" edge="1" parent="1" source="8xc94kz88sHaFvi-XfF1-11" target="8xc94kz88sHaFvi-XfF1-14">
          <mxGeometry width="50" height="50" relative="1" as="geometry">
            <mxPoint x="650" y="740" as="sourcePoint" />
            <mxPoint x="731" y="865" as="targetPoint" />
            <Array as="points">
              <mxPoint x="640" y="750" />
            </Array>
          </mxGeometry>
        </mxCell>
        <mxCell id="8xc94kz88sHaFvi-XfF1-16" value="YES" style="text;html=1;align=center;verticalAlign=middle;whiteSpace=wrap;rounded=0;" vertex="1" parent="1">
          <mxGeometry x="425" y="400" width="60" height="30" as="geometry" />
        </mxCell>
        <mxCell id="8xc94kz88sHaFvi-XfF1-17" value="YES" style="text;html=1;align=center;verticalAlign=middle;whiteSpace=wrap;rounded=0;" vertex="1" parent="1">
          <mxGeometry x="425" y="580" width="60" height="30" as="geometry" />
        </mxCell>
        <mxCell id="8xc94kz88sHaFvi-XfF1-18" value="NO" style="text;html=1;align=center;verticalAlign=middle;whiteSpace=wrap;rounded=0;" vertex="1" parent="1">
          <mxGeometry x="550" y="300" width="60" height="30" as="geometry" />
        </mxCell>
        <mxCell id="8xc94kz88sHaFvi-XfF1-19" value="NO" style="text;html=1;align=center;verticalAlign=middle;whiteSpace=wrap;rounded=0;" vertex="1" parent="1">
          <mxGeometry x="550" y="480" width="60" height="30" as="geometry" />
        </mxCell>
      </root>
    </mxGraphModel>
  </diagram>
</mxfile>
